<svg width="32"
     height="14"
     viewBox="0 0 32 14"
     fill="none"
     xmlns="http://www.w3.org/2000/svg">
  <g id="Arrow right">
    <path id="Arrow 4"
          d="M1 6.5C0.723858 6.5 0.5 6.72386 0.5 7C0.5 7.27614 0.723858 7.5 1 7.5V6.5ZM31.3536 7.35355C31.5488 7.15829 31.5488 6.84171 31.3536 6.64645L28.1716 3.46447C27.9763 3.2692 27.6597 3.2692 27.4645 3.46447C27.2692 3.65973 27.2692 3.97631 27.4645 4.17157L30.2929 7L27.4645 9.82843C27.2692 10.0237 27.2692 10.3403 27.4645 10.5355C27.6597 10.7308 27.9763 10.7308 28.1716 10.5355L31.3536 7.35355ZM1 7.5H31V6.5H1V7.5Z"
          fill="#FBFBFC"
          fill-opacity="0.5" />
  </g>
</svg>