<svg width="24"
     height="24"
     viewBox="0 0 24 24"
     fill="none"
     xmlns="http://www.w3.org/2000/svg">
  <g id="Frame 1171276666">
    <path id="Union"
          fill-rule="evenodd"
          clip-rule="evenodd"
          d="M15.5361 4.78766C14.0231 4.06624 12.3209 3.83244 10.6674 4.11913C9.01388 4.40583 7.49229 5.19858 6.315 6.38608C5.13774 7.57353 4.36355 9.09636 4.10003 10.7416C3.83651 12.3869 4.09671 14.0729 4.84451 15.5644C4.96828 15.8112 4.86851 16.1117 4.62166 16.2354C4.37481 16.3592 4.07436 16.2594 3.95059 16.0126C3.10897 14.334 2.81591 12.4359 3.11262 10.5835C3.40932 8.73107 4.28084 7.01751 5.60485 5.68203C6.92882 4.34658 8.63909 3.45589 10.4965 3.13383C12.3539 2.81178 14.2663 3.07433 15.9665 3.88502C16.2158 4.00387 16.3215 4.30228 16.2026 4.55154C16.0838 4.8008 15.7854 4.90651 15.5361 4.78766ZM17.6348 7.22377C18.1206 7.22377 18.5196 6.82792 18.5196 6.33324C18.5196 5.83855 18.1206 5.4427 17.6348 5.4427C17.149 5.4427 16.75 5.83855 16.75 6.33324C16.75 6.82792 17.149 7.22377 17.6348 7.22377ZM17.6348 8.22377C18.6758 8.22377 19.5196 7.37735 19.5196 6.33324C19.5196 5.28912 18.6758 4.4427 17.6348 4.4427C16.5939 4.4427 15.75 5.28912 15.75 6.33324C15.75 7.37735 16.5939 8.22377 17.6348 8.22377ZM11.9816 15.7313C14.0288 15.7313 15.6936 14.0658 15.6936 12.0049C15.6936 9.94407 14.0288 8.27859 11.9816 8.27859C9.93432 8.27859 8.26953 9.94407 8.26953 12.0049C8.26953 14.0658 9.93432 15.7313 11.9816 15.7313ZM11.9816 16.7313C14.584 16.7313 16.6936 14.6152 16.6936 12.0049C16.6936 9.39465 14.584 7.27859 11.9816 7.27859C9.37919 7.27859 7.26953 9.39465 7.26953 12.0049C7.26953 14.6152 9.37919 16.7313 11.9816 16.7313ZM7.21104 17.6768C7.21104 18.1715 6.81204 18.5673 6.32622 18.5673C5.84041 18.5673 5.44141 18.1715 5.44141 17.6768C5.44141 17.1821 5.84041 16.7863 6.32622 16.7863C6.81204 16.7863 7.21104 17.1821 7.21104 17.6768ZM8.21104 17.6768C8.21104 18.7209 7.36718 19.5673 6.32622 19.5673C5.28527 19.5673 4.44141 18.7209 4.44141 17.6768C4.44141 16.6327 5.28527 15.7863 6.32622 15.7863C7.36718 15.7863 8.21104 16.6327 8.21104 17.6768ZM19.8669 13.406C20.1721 11.7499 19.9587 10.039 19.2568 8.51253C19.1415 8.26163 19.2513 7.96473 19.5022 7.84939C19.7531 7.73405 20.05 7.84394 20.1654 8.09484C20.9535 9.80892 21.1929 11.7291 20.8504 13.5873C20.5079 15.4456 19.6004 17.1501 18.2537 18.4625C16.9069 19.7749 15.1881 20.6294 13.337 20.9056C11.4859 21.1818 9.59609 20.8656 7.93195 20.0016C7.68686 19.8744 7.59131 19.5726 7.71853 19.3275C7.84575 19.0824 8.14757 18.9869 8.39266 19.1141C9.87021 19.8812 11.5471 20.1616 13.1894 19.9166C14.8316 19.6715 16.3583 18.9132 17.5558 17.7463C18.7533 16.5793 19.5617 15.062 19.8669 13.406Z"
          fill="#FBFBFC" />
  </g>
</svg>